# xmcd
#
# Track frame offsets:
#	150
#	18267
#	34688
#	52192
#	65170
#	81418
#	94966
#	110858
#	126654
#	143821
#	158400
#	173541
#	192783
#	212236
#	226801
#	244505
#	263314
#	276600
#
# Disc length: 3888 seconds
#
# Revision: 0
# Processed by: cddbd v1.5.2PL0 Copyright (c) Steve Scherf et al.
# Submitted via: audiograbber 1.83.01
#
DISCID=040f2e12
DTITLE=The Bellamy Brothers - Best of
DYEAR=2000
DGENRE=Country
TTITLE0=Neon Cowboy
TTITLE1=Crossfire
TTITLE2=Fly me to Eden
TTITLE3=Let your love flow (Remake '91)
TTITLE4=Crazy from the heart
TTITLE5=Blue California
TTITLE6=Do you wanna dance with me
TTITLE7=Forever is a long way
TTITLE8=Save your love
TTITLE9=Life goes by
TTITLE10=Big love
TTITLE11=Hemingway Hideaway
TTITLE12=Take me home
TTITLE13=Miami Moon
TTITLE14=Blame it ... on the fire in my heart
TTITLE15=Beggars and Heroes
TTITLE16=Too late
TTITLE17=On a summernight
EXTD=
EXTT0=
EXTT1=
EXTT2=
EXTT3=
EXTT4=
EXTT5=
EXTT6=
EXTT7=
EXTT8=
EXTT9=
EXTT10=
EXTT11=
EXTT12=
EXTT13=
EXTT14=
EXTT15=
EXTT16=
EXTT17=
PLAYORDER=
